<?xml version="1.0" standalone="no"?>
<!DOCTYPE svg PUBLIC "-//W3C//DTD SVG 20010904//EN"
 "http://www.w3.org/TR/2001/REC-SVG-20010904/DTD/svg10.dtd">
<svg version="1.0" xmlns="http://www.w3.org/2000/svg"
 width="300.000000pt" height="300.000000pt" viewBox="0 0 300.000000 300.000000"
 preserveAspectRatio="xMidYMid meet">
<metadata>
Created by potrace 1.11, written by Peter Selinger 2001-2013
</metadata>
<g transform="translate(0.000000,300.000000) scale(0.100000,-0.100000)"
fill="#000000" stroke="none">
<path d="M1310 2955 c-55 -13 -97 -29 -206 -81 -63 -31 -102 -34 -214 -20 -42
5 -80 4 -106 -3 -41 -11 -144 -78 -144 -94 0 -4 -9 -17 -20 -29 -32 -34 -61
-126 -71 -223 -5 -49 -13 -115 -18 -145 -6 -30 -13 -86 -16 -125 -8 -92 -22
-151 -41 -180 -10 -16 -19 -67 -25 -157 -6 -73 -13 -160 -17 -192 l-7 -59 -70
-19 c-127 -35 -229 -70 -293 -101 l-62 -30 0 -47 c0 -44 2 -48 33 -60 52 -20
97 -44 97 -52 0 -5 9 -8 20 -8 40 0 199 -74 209 -98 15 -32 14 -52 -4 -52 -8
0 -15 -6 -15 -13 0 -8 -19 -22 -41 -33 -23 -10 -64 -41 -91 -69 l-48 -50 1
-75 c1 -41 -3 -100 -8 -130 -9 -47 -8 -60 8 -92 22 -43 24 -64 7 -72 -7 -3 -3
-3 8 -1 18 5 23 -1 33 -37 19 -72 17 -90 -21 -143 -49 -68 -68 -132 -72 -250
-5 -110 -16 -177 -36 -200 -11 -13 73 -15 786 -15 l799 0 -52 30 c-29 17 -53
35 -53 41 0 6 -4 8 -10 4 -11 -7 -51 30 -42 39 3 3 -2 6 -11 6 -35 0 -9 37 31
43 12 2 30 11 40 20 10 9 23 17 29 17 6 0 13 7 17 15 7 18 -3 45 -16 45 -6 0
-8 -7 -4 -15 3 -8 3 -15 0 -15 -2 0 -9 12 -14 26 -6 14 -14 23 -19 20 -5 -4
-7 3 -4 14 7 26 21 25 34 -3 8 -19 9 -18 5 10 -3 18 -2 32 2 32 27 -4 34 1 21
17 -11 14 -13 14 -22 -2 -9 -15 -13 -13 -38 16 -16 18 -29 29 -29 25 0 -5 8
-17 17 -27 13 -14 14 -21 5 -30 -9 -9 -12 -8 -12 5 0 11 -8 17 -22 16 -16 -1
-18 -3 -6 -6 19 -5 28 -23 23 -49 -2 -11 -4 -23 -4 -29 -1 -5 -5 -4 -9 3 -5 7
-18 14 -30 17 -29 5 -42 14 -42 27 0 6 9 8 20 5 22 -6 25 0 10 23 -8 12 -12
12 -18 2 -5 -7 -15 -12 -22 -10 -8 2 -14 -4 -15 -12 0 -10 -11 -15 -32 -15
-17 0 -29 -3 -27 -6 2 -4 -6 -9 -18 -12 -21 -6 -21 -7 -3 -27 28 -31 12 -24
-24 11 -24 23 -36 28 -44 20 -15 -15 -24 -14 -31 5 -3 8 -2 12 4 9 6 -3 10 1
10 10 0 12 5 15 16 11 15 -6 15 -4 3 11 -7 10 -14 19 -15 21 -1 2 -9 -4 -18
-13 -15 -15 -16 -15 -16 2 0 10 -3 14 -8 8 -4 -6 -19 -18 -34 -28 -16 -10 -25
-23 -22 -31 8 -22 -12 -28 -27 -8 -13 15 -12 16 4 3 11 -9 17 -10 17 -2 0 6
-4 11 -9 11 -5 0 -13 9 -16 20 -3 11 -11 20 -18 20 -8 0 -8 -3 1 -12 7 -7 12
-16 12 -20 0 -13 -28 -9 -33 5 -3 6 -6 4 -6 -7 -1 -10 7 -25 17 -32 15 -12 15
-13 1 -14 -22 0 -43 26 -33 41 4 8 3 9 -4 5 -7 -4 -12 -2 -12 4 0 6 -5 8 -10
5 -8 -5 -15 8 -8 18 1 1 -4 12 -10 24 -13 23 -38 25 -54 2 -8 -11 -9 -11 -4 3
3 12 0 18 -9 18 -23 0 -30 -4 -29 -17 1 -6 -5 -9 -12 -6 -17 6 -18 35 -2 52
11 10 10 11 -4 6 -12 -5 -18 -2 -18 8 0 8 7 18 16 21 8 3 13 10 10 15 -8 13
12 64 30 78 9 6 17 23 18 36 0 14 4 23 8 21 3 -2 9 10 13 27 5 21 10 27 15 19
4 -7 13 -9 21 -5 9 6 11 3 6 -9 -6 -14 -3 -15 14 -6 11 6 17 15 14 21 -6 8 2
11 50 14 13 0 19 7 17 17 -3 19 42 53 56 44 5 -3 30 10 55 29 25 19 55 35 66
35 11 0 22 4 25 9 3 5 19 8 35 7 17 -1 27 2 24 7 -3 5 0 7 8 5 8 -3 13 -11 11
-17 -3 -17 12 -13 31 9 9 11 26 20 37 20 11 0 20 4 20 9 0 5 9 11 20 14 11 3
18 2 16 -2 -6 -9 114 -12 127 -4 6 4 2 10 -9 14 -12 4 2 7 35 7 30 1 59 -2 64
-5 6 -3 26 -7 45 -9 20 -2 39 -7 44 -12 4 -4 -9 -7 -30 -5 l-37 3 29 -11 c22
-9 34 -9 48 0 22 14 50 15 28 1 -11 -7 -5 -8 19 -3 25 4 32 3 27 -5 -4 -8 0
-12 10 -12 16 0 16 -1 -2 -15 -18 -14 -17 -14 9 -5 22 8 35 7 55 -4 15 -8 40
-17 55 -21 33 -7 27 -25 -9 -25 -17 0 -23 4 -18 12 5 8 2 9 -11 4 -23 -8 -57
2 -49 15 3 6 -4 5 -15 -3 -21 -13 -21 -13 16 -25 l38 -11 -50 -2 c-64 -1 -41
-17 36 -24 29 -3 46 -3 37 0 -30 9 -20 24 17 24 24 0 35 -5 35 -15 0 -8 -8
-15 -17 -15 -16 -1 -15 -3 4 -19 l23 -19 -25 -16 c-14 -9 -24 -21 -22 -28 4
-21 -55 -28 -110 -14 -29 8 -53 10 -53 5 0 -5 -10 -9 -22 -9 -17 0 -19 3 -10
9 10 6 7 10 -12 13 -15 3 -29 2 -31 -3 -3 -4 -20 -4 -38 1 -44 12 -235 18
-205 7 12 -4 61 -10 108 -13 122 -7 148 -11 215 -29 74 -21 79 -24 66 -39 -6
-7 -9 -15 -6 -18 3 -3 -38 -33 -90 -67 -52 -35 -95 -66 -95 -70 0 -4 -12 -13
-26 -20 -22 -9 -31 -9 -50 4 -41 27 -38 16 4 -15 23 -16 45 -30 49 -30 5 0 1
5 -7 10 -12 8 -11 10 7 10 12 0 25 5 28 10 3 6 14 10 24 10 10 0 33 13 51 28
18 16 48 37 69 48 20 10 42 27 49 37 7 9 28 24 45 33 18 9 36 23 40 31 5 7 12
11 18 8 5 -4 9 1 9 9 0 9 6 16 13 16 7 0 26 18 43 40 16 22 35 40 42 40 7 0
11 4 8 9 -3 5 1 14 9 21 8 7 15 16 15 21 0 8 26 42 56 74 7 6 14 20 16 31 2
10 10 18 16 16 7 -1 11 3 10 9 -2 6 7 12 19 14 12 1 20 -2 17 -7 -3 -4 -2 -8
3 -8 11 0 40 20 29 20 -5 0 -3 6 3 13 6 8 9 17 6 20 -3 4 -2 5 2 2 3 -3 7 -15
9 -28 1 -12 4 -32 7 -45 3 -12 1 -22 -5 -22 -5 0 -7 8 -4 17 5 13 0 11 -18 -6
-29 -28 -33 -36 -12 -28 8 3 17 1 20 -6 3 -9 5 -9 5 1 1 19 18 14 24 -7 3 -13
-3 -26 -17 -36 l-21 -16 23 6 c26 7 30 -11 4 -19 -21 -7 -25 -36 -8 -49 6 -5
-4 -6 -24 -3 -27 4 -31 3 -17 -5 9 -5 17 -18 17 -27 0 -15 -2 -15 -10 -2 -9
13 -14 7 -11 -12 0 -4 -7 -4 -16 -1 -10 4 -14 2 -9 -5 3 -6 -1 -15 -10 -20
-11 -6 -13 -11 -5 -16 6 -4 11 -3 11 2 0 5 10 12 23 15 16 5 10 -5 -25 -37
-26 -24 -45 -46 -41 -49 3 -4 -1 -7 -9 -7 -17 0 -32 -26 -23 -40 3 -5 1 -11
-5 -15 -6 -4 -7 -12 -3 -18 4 -7 -2 -5 -12 3 -17 14 -18 14 -7 -6 9 -17 9 -24
-3 -34 -8 -7 -15 -18 -15 -25 0 -7 -10 -15 -21 -18 -16 -4 -20 -10 -14 -24 14
-35 12 -48 -9 -60 -20 -11 -20 -12 7 -18 27 -7 27 -8 10 -28 -13 -14 -14 -21
-6 -24 9 -3 8 -11 -4 -29 -8 -14 -17 -40 -18 -59 -1 -19 -7 -40 -13 -47 -7 -9
-8 -19 -1 -28 8 -13 10 -13 19 0 6 10 10 11 10 3 0 -10 97 -12 425 -13 l425 0
0 222 0 223 -100 48 c-111 54 -180 100 -180 121 0 8 -7 16 -15 20 -16 6 -21
56 -5 56 16 0 60 50 66 77 6 21 1 30 -26 51 -18 14 -49 41 -69 60 -20 18 -54
42 -77 52 -27 12 -45 28 -53 49 -7 17 -21 33 -31 36 -10 3 -45 32 -78 64 l-59
59 -7 76 c-4 42 -9 83 -12 90 -3 8 37 44 103 93 123 92 175 144 232 233 112
173 107 297 -14 344 -40 16 -85 21 -230 25 l-179 6 -26 76 c-14 42 -39 93 -54
113 -15 21 -38 63 -51 94 -12 31 -31 77 -43 102 -11 25 -37 86 -57 135 -42
106 -90 201 -116 229 -11 11 -19 24 -19 29 0 5 -20 28 -45 52 -51 47 -150 100
-229 121 -63 17 -240 16 -316 -1z m408 -1258 c20 -13 14 -27 -12 -27 -14 0
-28 -5 -31 -10 -4 -6 -11 -8 -16 -5 -5 4 -9 2 -9 -3 0 -6 -24 -25 -52 -43 -29
-18 -57 -39 -61 -46 -5 -8 -13 -11 -18 -8 -5 4 -7 10 -4 15 3 5 1 11 -5 15 -5
3 -10 12 -10 18 0 8 3 8 8 2 9 -13 35 -19 28 -6 -3 5 1 14 9 21 8 7 15 19 15
27 0 8 5 11 10 8 6 -3 10 1 10 9 0 32 101 56 138 33z m-122 -113 c-9 -8 -16
-24 -16 -35 0 -10 -5 -19 -11 -19 -5 0 -7 6 -4 13 4 6 -1 3 -9 -8 -9 -11 -14
-25 -12 -32 8 -20 -2 -15 -13 6 -9 15 -4 25 25 55 19 20 40 36 45 36 6 0 3 -7
-5 -16z m-89 -24 c2 -23 -12 -35 -22 -20 -4 6 -1 17 5 25 16 19 15 19 17 -5z
m375 -49 c-8 -5 -12 -17 -10 -27 3 -16 7 -14 20 11 l16 30 7 -29 c5 -19 3 -31
-6 -36 -10 -7 -10 -11 0 -24 7 -8 10 -20 7 -25 -4 -5 1 -14 9 -18 17 -10 29
-70 15 -78 -5 -3 -7 6 -4 19 2 14 -1 28 -8 32 -7 4 -10 4 -6 -1 4 -4 3 -16 -3
-27 -7 -14 -7 -23 2 -34 10 -12 9 -13 -5 -8 -12 4 -16 0 -16 -15 0 -14 -6 -21
-20 -21 -24 0 -26 13 -6 30 11 8 12 18 6 35 -5 13 -7 25 -4 28 2 2 -2 30 -11
62 -16 64 -11 105 14 105 13 0 13 -2 3 -9z m-222 -21 c24 -15 -3 -34 -37 -25
-27 6 -27 7 -9 21 23 16 26 17 46 4z m-176 -36 c3 -8 2 -12 -4 -9 -6 3 -10 -3
-10 -14 0 -12 -4 -21 -10 -21 -13 0 -13 3 2 35 13 29 14 30 22 9z m-217 -56
c-3 -7 -5 -2 -5 12 0 14 2 19 5 13 2 -7 2 -19 0 -25z m-12 -38 c11 9 12 5 3
-24 -15 -47 -28 -46 -27 2 0 20 3 31 6 24 4 -9 8 -10 18 -2z m47 -21 c6 -4 8
-15 6 -25 -4 -17 -6 -16 -16 6 -9 20 -11 22 -11 6 -1 -11 -3 -17 -6 -14 -4 3
-3 19 1 34 5 18 9 23 12 14 3 -8 9 -18 14 -21z m28 -33 c-7 -7 -10 4 -9 30 1
39 1 39 10 9 5 -18 5 -33 -1 -39z m107 47 c0 -9 -4 -10 -14 -2 -7 6 -13 12
-13 14 0 1 6 2 13 2 8 0 14 -6 14 -14z m-114 -84 c7 -24 33 -20 29 4 -2 11 2
15 11 11 7 -2 14 -11 14 -19 0 -8 -4 -12 -8 -10 -4 3 -17 -7 -29 -22 -12 -16
-19 -20 -16 -11 2 9 -2 19 -10 22 -15 6 -20 46 -5 46 5 0 11 -9 14 -21z m-83
-22 c0 -5 -4 -5 -10 -2 -5 3 -10 14 -10 23 0 15 2 15 10 2 5 -8 10 -19 10 -23z
m41 6 c-12 -20 -14 -14 -5 12 4 9 9 14 11 11 3 -2 0 -13 -6 -23z m-191 -33 c0
-23 -4 -28 -16 -23 -11 4 -12 8 -4 13 6 4 10 11 9 16 -2 13 0 24 6 24 3 0 5
-13 5 -30z m75 20 c3 -5 1 -10 -4 -10 -6 0 -11 5 -11 10 0 6 2 10 4 10 3 0 8
-4 11 -10z m730 0 c3 -5 -2 -10 -12 -11 -10 0 -13 -3 -6 -5 6 -3 -4 -20 -26
-43 -20 -21 -35 -43 -33 -50 3 -9 -2 -11 -18 -6 -15 5 -20 4 -16 -4 5 -7 1 -8
-10 -4 -11 4 -15 2 -11 -4 4 -6 -6 -10 -24 -11 -16 0 -27 4 -24 9 4 5 1 9 -4
9 -6 0 -11 -4 -11 -10 0 -5 -5 -10 -11 -10 -6 0 -9 6 -6 13 5 14 -1 16 -57 20
-27 2 -32 5 -23 15 9 11 7 13 -9 10 -14 -2 -18 2 -16 16 3 13 -1 17 -12 13
-22 -8 -30 9 -8 18 31 13 81 15 88 4 4 -8 9 -7 15 2 7 12 10 12 21 0 11 -11
11 -13 -1 -6 -10 5 -12 4 -7 -4 4 -6 12 -8 18 -5 6 4 37 8 70 8 46 2 63 7 80
24 24 24 43 28 53 12z m-490 -10 c-3 -5 1 -23 9 -39 13 -24 13 -31 2 -40 -11
-9 -12 -6 -9 16 3 25 2 26 -6 6 -5 -12 -19 -24 -31 -28 -15 -5 -20 -13 -17
-26 3 -10 1 -17 -3 -14 -14 9 -52 -47 -40 -59 5 -5 10 -14 10 -19 0 -5 -9 2
-20 16 -11 14 -20 33 -19 44 0 16 1 16 10 -2 7 -17 8 -15 6 10 -1 19 3 29 11
28 11 -3 16 14 13 47 -2 13 -1 13 8 0 5 -8 7 -18 4 -24 -4 -5 -1 -6 6 -1 8 5
11 18 7 38 -3 16 -2 35 3 41 12 14 65 20 56 6z m28 -15 c-3 -9 -8 -14 -10 -11
-3 3 -2 9 2 15 9 16 15 13 8 -4z m-156 -34 c-9 -10 -9 -15 -1 -18 16 -5 4 -54
-15 -61 -9 -3 -19 -10 -23 -16 -4 -6 -10 -8 -13 -4 -3 3 1 12 9 21 8 8 12 18
8 21 -3 4 2 4 12 0 15 -6 17 -2 15 22 -1 16 -1 40 0 54 1 19 3 22 11 10 6 -9
5 -19 -3 -29z m-244 12 c-5 -12 -3 -14 7 -8 9 6 11 4 5 -4 -5 -9 -11 -9 -17
-3 -6 6 -7 15 -4 21 11 17 16 13 9 -6z m474 -1 c8 -5 3 -11 -13 -19 -26 -12
-27 -12 -18 11 7 18 13 19 31 8z m-263 -26 c-8 -20 -24 -21 -24 0 0 8 5 12 10
9 6 -3 10 -1 10 6 0 7 2 10 5 7 3 -3 3 -13 -1 -22z m-227 -18 c-3 -8 -6 -5 -6
6 -1 11 2 17 5 13 3 -3 4 -12 1 -19z m389 -41 c1 -12 -2 -17 -11 -13 -7 2 -15
-4 -19 -16 -6 -26 1 -41 17 -31 7 4 17 8 22 9 6 1 19 5 30 9 19 7 20 7 1 -7
-10 -8 -16 -20 -13 -25 4 -6 -2 -18 -13 -28 -11 -10 -20 -15 -20 -10 0 4 8 14
18 21 16 13 16 14 -2 7 -15 -5 -18 -3 -13 10 3 9 4 17 1 17 -2 0 -9 -10 -14
-22 -6 -16 -9 -18 -9 -7 -1 21 -31 48 -31 28 0 -11 -2 -11 -10 1 -7 11 -4 20
10 32 11 9 20 20 19 25 -3 18 2 24 18 21 9 -2 17 -11 19 -21z m-149 -69 c-3
-8 -6 -5 -6 6 -1 11 2 17 5 13 3 -3 4 -12 1 -19z m106 -28 c-3 -12 -8 -19 -11
-16 -5 6 5 36 12 36 2 0 2 -9 -1 -20z m147 -15 c7 -9 11 -17 9 -18 -19 -14
-59 -37 -64 -37 -3 0 -4 5 -2 12 1 7 -8 13 -21 14 -12 1 -26 5 -30 9 -4 5 1 5
11 2 9 -4 17 -3 17 2 0 9 38 29 56 30 6 1 17 -6 24 -14z m640 -14 c0 -20 -46
-36 -56 -20 -3 5 2 9 11 9 9 0 14 4 10 9 -3 5 3 12 12 14 10 3 19 5 21 6 1 0
2 -7 2 -18z m-560 -2 c0 -6 -7 -9 -15 -6 -8 4 -17 1 -21 -5 -4 -7 -3 -8 5 -4
6 4 14 1 17 -8 3 -8 13 -12 22 -9 14 4 15 3 2 -5 -8 -6 -17 -9 -22 -6 -4 2
-12 -5 -18 -16 -6 -12 -17 -19 -24 -17 -6 3 -20 -1 -30 -8 -10 -8 -24 -11 -32
-8 -8 3 -14 1 -14 -5 0 -5 -10 -12 -22 -15 -23 -6 -23 -6 -3 9 11 9 19 19 18
24 -1 5 11 12 28 15 24 5 30 11 26 26 -4 13 0 19 13 19 10 0 23 7 30 15 15 17
40 20 40 4z m225 -39 c-37 -19 -40 -19 -55 -3 -14 16 -14 16 3 3 15 -11 20
-11 35 3 9 10 25 17 36 17 14 0 8 -6 -19 -20z m-125 0 c0 -5 -8 -10 -17 -10
-15 0 -16 2 -3 10 19 12 20 12 20 0z m475 -20 c-4 -7 3 -9 22 -5 24 5 25 5 10
-5 -10 -7 -25 -9 -33 -6 -16 6 -19 26 -3 26 5 0 7 -5 4 -10z m-525 -11 c57
-17 92 -20 84 -7 -5 8 -1 9 11 4 11 -4 40 -10 65 -13 42 -5 44 -4 25 10 -23
19 -17 21 21 7 l27 -11 -24 -17 c-13 -9 -27 -16 -31 -15 -4 2 -19 -2 -33 -7
-17 -7 -24 -7 -20 0 3 6 -2 10 -12 11 -16 0 -16 1 2 9 20 9 20 9 0 9 -12 1
-27 -5 -33 -11 -10 -10 -17 -10 -32 -1 -10 7 -20 8 -22 4 -5 -13 -139 -19
-135 -6 2 7 57 41 72 45 0 0 16 -5 35 -11z m495 1 c3 -5 1 -10 -4 -10 -6 0
-11 5 -11 10 0 6 2 10 4 10 3 0 8 -4 11 -10z m-215 -42 l23 -21 -22 -8 c-27
-11 -51 -1 -44 17 3 8 -1 14 -8 14 -11 0 -11 3 1 10 21 13 23 13 50 -12z m227
6 c-3 -3 -12 -4 -19 -1 -8 3 -5 6 6 6 11 1 17 -2 13 -5z m-627 -8 c0 -3 -4 -8
-10 -11 -5 -3 -10 -1 -10 4 0 6 5 11 10 11 6 0 10 -2 10 -4z m-476 -22 c3 -8
2 -12 -4 -9 -6 3 -10 10 -10 16 0 14 7 11 14 -7z m571 6 c25 -11 -1 -11 -35 0
-20 6 -21 8 -5 8 11 0 29 -3 40 -8z m561 -2 c4 -6 2 -14 -4 -16 -7 -2 -10 -8
-6 -13 6 -11 2 -11 -21 -2 -15 5 -14 8 6 20 24 13 24 13 -6 8 -24 -4 -26 -3
-10 4 27 13 33 13 41 -1z m-980 -18 c0 -11 -4 -20 -8 -20 -10 0 -11 24 -1 33
9 9 9 10 9 -13z m40 -22 c-3 -36 -17 -45 -22 -13 -2 16 11 45 21 45 2 0 2 -15
1 -32z m29 -17 c-10 -9 -15 -11 -11 -4 3 6 2 14 -4 18 -6 4 -5 11 3 19 10 12
13 11 21 -1 5 -10 2 -21 -9 -32z m709 38 c-3 -6 0 -15 7 -20 11 -7 11 -9 -3
-9 -9 0 -20 5 -23 10 -7 12 2 30 16 30 6 0 7 -5 3 -11z m94 -2 c-7 -8 -22 -12
-33 -9 -18 5 -18 6 5 13 38 11 42 10 28 -4z m-1001 -29 c-3 -8 -6 -5 -6 6 -1
11 2 17 5 13 3 -3 4 -12 1 -19z m-17 -7 c0 -4 -6 -8 -14 -8 -8 0 -12 6 -9 14
5 13 23 9 23 -6z m44 -32 c-3 -5 1 -9 9 -9 10 0 14 8 11 23 -2 12 -1 16 2 8 5
-11 8 -11 15 0 7 11 9 10 9 -3 0 -9 -5 -20 -10 -23 -6 -4 -7 -13 -1 -23 6 -12
5 -24 -5 -37 -8 -10 -14 -14 -14 -9 0 6 6 16 13 23 10 11 8 13 -10 8 -13 -3
-26 -1 -29 4 -3 5 5 10 18 10 l23 2 -22 4 c-19 4 -23 11 -22 41 0 33 1 35 10
14 5 -13 7 -28 3 -33z m76 21 c-1 -24 -1 -24 -12 -5 -6 11 -16 23 -22 27 -6 4
-1 6 12 5 17 -1 22 -7 22 -27z m980 20 c0 -5 -6 -10 -12 -11 -7 -1 -2 -4 12
-9 24 -7 24 -7 -10 -18 -21 -6 -27 -11 -15 -11 17 -1 18 -3 4 -16 -15 -16 -54
-11 -44 5 3 5 -2 13 -11 18 -22 12 -11 42 16 42 11 0 20 -6 20 -12 0 -7 5 -5
11 5 11 18 29 23 29 7z m-120 -10 c0 -5 -5 -10 -11 -10 -5 0 -7 5 -4 10 3 6 8
10 11 10 2 0 4 -4 4 -10z m-963 -52 c-3 -8 -6 -5 -6 6 -1 11 2 17 5 13 3 -3 4
-12 1 -19z m-25 -10 c-7 -7 -12 -8 -12 -2 0 14 12 26 19 19 2 -3 -1 -11 -7
-17z m41 -44 c-7 -20 -19 -17 -19 5 0 11 6 17 13 14 6 -3 9 -11 6 -19z m-33
10 c0 -3 -7 -12 -15 -20 -12 -13 -15 -13 -15 -1 0 7 3 17 7 20 8 8 23 9 23 1z
m1080 -4 c-20 -13 -33 -13 -25 0 3 6 14 10 23 10 15 0 15 -2 2 -10z m-165
-115 c54 -17 23 -18 -40 -1 -30 9 -40 14 -25 14 14 0 43 -5 65 -13z m345 -59
c0 -3 -4 -8 -10 -11 -5 -3 -10 -1 -10 4 0 6 5 11 10 11 6 0 10 -2 10 -4z
m-1426 -128 c6 -4 7 -10 3 -15 -10 -9 -27 16 -26 37 1 13 1 13 6 0 3 -8 11
-18 17 -22z m1396 18 c0 -3 -4 -8 -10 -11 -5 -3 -10 -1 -10 4 0 6 5 11 10 11
6 0 10 -2 10 -4z m-1267 -61 c-3 -9 -8 -14 -10 -11 -3 3 -2 9 2 15 9 16 15 13
8 -4z m187 -29 c0 -3 -4 -8 -10 -11 -5 -3 -10 -1 -10 4 0 6 5 11 10 11 6 0 10
-2 10 -4z m256 -31 c4 -8 10 -13 14 -10 4 2 16 -5 26 -18 l19 -22 -24 20 c-13
11 -25 19 -27 18 -10 -7 -22 -2 -28 12 -3 8 -1 15 5 15 5 0 12 -7 15 -15z
m-779 -17 c-3 -8 -6 -5 -6 6 -1 11 2 17 5 13 3 -3 4 -12 1 -19z m553 12 c0 -5
-2 -10 -4 -10 -3 0 -8 5 -11 10 -3 6 -1 10 4 10 6 0 11 -4 11 -10z m340 -50
c0 -5 -5 -10 -11 -10 -5 0 -7 5 -4 10 3 6 8 10 11 10 2 0 4 -4 4 -10z m890
-34 c0 -3 -4 -8 -10 -11 -5 -3 -10 -1 -10 4 0 6 5 11 10 11 6 0 10 -2 10 -4z
m60 -126 c0 -5 -4 -10 -10 -10 -5 0 -10 5 -10 10 0 6 5 10 10 10 6 0 10 -4 10
-10z"/>
<path d="M1372 1209 c-11 -17 -11 -20 0 -13 10 6 10 5 0 -9 -8 -9 -12 -22 -10
-29 3 -8 11 -2 22 14 11 18 15 32 9 42 -7 13 -10 12 -21 -5z"/>
<path d="M1478 993 c6 -2 10 -9 7 -14 -4 -5 1 -6 10 -2 13 5 14 7 3 14 -7 5
-17 8 -23 8 -5 0 -4 -3 3 -6z"/>
<path d="M1536 941 c-4 -5 1 -8 9 -7 21 3 31 16 12 16 -9 0 -18 -4 -21 -9z"/>
<path d="M1618 893 c6 -2 18 -2 25 0 6 3 1 5 -13 5 -14 0 -19 -2 -12 -5z"/>
<path d="M1690 820 c-13 -8 -13 -10 2 -10 9 0 20 5 23 10 8 13 -5 13 -25 0z"/>
<path d="M2340 823 c-32 -13 -41 -30 -23 -45 10 -7 14 -8 10 -1 -4 7 1 14 13
18 11 4 18 10 15 15 -3 5 1 11 7 13 7 3 9 5 3 5 -5 0 -17 -2 -25 -5z"/>
<path d="M1584 805 c-10 -8 -14 -14 -9 -14 6 0 19 6 29 14 11 8 15 15 10 15
-6 0 -19 -7 -30 -15z"/>
<path d="M1683 777 c18 -15 18 -15 0 -19 -10 -3 7 -9 37 -15 l55 -11 -68 0
c-37 0 -71 -3 -75 -6 -3 -4 34 -6 83 -4 69 2 89 6 87 17 -2 10 10 12 60 7 l63
-6 -45 13 c-25 7 -74 11 -110 10 -44 -1 -59 1 -45 7 19 8 19 9 -2 9 -12 1 -30
4 -40 7 -17 5 -17 5 0 -9z"/>
<path d="M1356 764 c-3 -8 0 -14 7 -15 7 0 3 -4 -8 -8 -37 -15 35 -18 100 -4
l60 12 -57 -5 c-47 -4 -60 -2 -77 15 -16 16 -21 17 -25 5z"/>
<path d="M1608 753 c7 -3 16 -2 19 1 4 3 -2 6 -13 5 -11 0 -14 -3 -6 -6z"/>
<path d="M1558 743 c7 -3 16 -2 19 1 4 3 -2 6 -13 5 -11 0 -14 -3 -6 -6z"/>
<path d="M1255 709 c-4 -5 -16 -7 -28 -4 -17 5 -19 4 -7 -4 16 -12 5 -14 -52
-14 -22 1 -27 -3 -25 -21 2 -16 -3 -20 -20 -19 -15 2 -23 -3 -23 -12 0 -8 -8
-15 -17 -16 -15 0 -15 -2 2 -9 18 -7 18 -9 -10 -21 -16 -7 -33 -12 -36 -11 -4
1 -5 -8 -2 -19 5 -19 13 -19 62 -1 9 3 12 1 7 -6 -4 -7 -28 -17 -52 -23 -32
-8 -41 -14 -32 -20 10 -7 11 -9 0 -9 -7 0 -10 -4 -7 -10 3 -5 16 -10 28 -10
18 0 19 2 7 10 -11 8 -1 9 35 6 28 -2 42 -2 32 1 -9 2 -14 9 -11 15 5 7 -3 9
-22 5 -19 -5 -12 1 21 18 29 14 59 22 70 18 18 -5 17 -3 -4 16 -20 17 -21 21
-7 21 9 0 15 4 11 10 -3 5 -11 7 -18 4 -7 -2 -22 5 -33 17 -10 13 -13 19 -6
15 6 -4 18 -4 25 1 6 4 18 8 25 9 8 2 17 6 20 10 4 4 -1 4 -10 1 -10 -4 -18
-2 -18 3 0 11 21 13 44 4 9 -3 13 -10 10 -15 -3 -5 0 -9 7 -9 7 0 4 -7 -7 -15
-11 -10 -2 -8 23 5 23 11 52 20 64 20 33 0 15 12 -23 15 -60 5 -63 7 -27 19
30 9 34 13 23 23 -8 9 -15 9 -19 2z m-170 -139 c-3 -5 -14 -10 -23 -10 -15 0
-15 2 -2 10 20 13 33 13 25 0z"/>
<path d="M1441 710 c-19 -5 -58 -7 -87 -5 -45 2 -51 1 -39 -11 7 -8 21 -14 30
-14 9 0 13 -4 10 -10 -4 -6 6 -10 22 -9 24 0 25 2 8 8 -16 6 -9 10 33 20 29 7
60 10 70 6 9 -4 28 -9 42 -11 18 -3 21 -2 10 5 -8 5 -19 7 -25 4 -7 -4 -7 -2
0 5 6 6 28 12 50 15 26 2 17 4 -25 4 -36 1 -80 -3 -99 -7z"/>
<path d="M1440 680 l-35 -7 43 -2 c23 0 42 4 42 9 0 6 -3 9 -7 9 -5 -1 -24 -5
-43 -9z"/>
<path d="M1610 682 c22 -14 90 -22 90 -11 0 5 -15 9 -34 9 -19 0 -43 3 -53 6
-14 4 -15 4 -3 -4z"/>
<path d="M1856 654 c-10 -25 -1 -27 33 -9 39 19 39 25 2 25 -18 0 -31 -6 -35
-16z"/>
<path d="M2048 653 c7 -3 16 -2 19 1 4 3 -2 6 -13 5 -11 0 -14 -3 -6 -6z"/>
<path d="M1780 630 c0 -5 5 -10 11 -10 5 0 7 5 4 10 -3 6 -8 10 -11 10 -2 0
-4 -4 -4 -10z"/>
<path d="M1420 621 l25 -8 -25 -5 c-17 -4 -10 -6 20 -6 30 -1 40 1 31 7 -11 7
-10 10 5 14 10 2 -3 5 -31 5 -38 0 -44 -2 -25 -7z"/>
<path d="M2006 614 c-5 -14 -4 -15 9 -4 17 14 19 20 6 20 -5 0 -12 -7 -15 -16z"/>
<path d="M1538 603 c7 -3 16 -2 19 1 4 3 -2 6 -13 5 -11 0 -14 -3 -6 -6z"/>
<path d="M1323 593 c9 -2 23 -2 30 0 6 3 -1 5 -18 5 -16 0 -22 -2 -12 -5z"/>
<path d="M1214 555 c-18 -13 -18 -14 4 -8 12 3 25 9 28 14 8 14 -10 11 -32 -6z"/>
<path d="M1153 525 c0 -8 4 -12 9 -9 5 3 6 10 3 15 -9 13 -12 11 -12 -6z"/>
<path d="M1235 532 c15 -14 75 -32 75 -22 0 5 -10 12 -22 15 -56 16 -63 17
-53 7z"/>
<path d="M1330 500 c8 -5 20 -10 25 -10 6 0 3 5 -5 10 -8 5 -19 10 -25 10 -5
0 -3 -5 5 -10z"/>
<path d="M1107 473 c-3 -5 2 -15 11 -23 14 -13 15 -12 9 2 -4 11 0 18 11 21
12 3 11 5 -5 6 -12 0 -24 -2 -26 -6z"/>
<path d="M997 446 c12 -9 21 -24 21 -34 -1 -20 40 -92 52 -92 5 0 12 6 16 13
4 6 4 9 -1 5 -4 -4 -14 0 -21 10 -9 13 -9 19 -1 25 8 6 6 7 -5 3 -12 -3 -18 0
-18 9 0 8 -4 15 -9 15 -4 0 -6 11 -3 25 2 14 0 25 -6 25 -6 0 -19 3 -29 6 -14
5 -13 3 4 -10z"/>
<path d="M1287 419 c7 -7 15 -10 18 -7 3 3 -2 9 -12 12 -14 6 -15 5 -6 -5z"/>
<path d="M980 402 c0 -10 7 -19 15 -19 17 0 17 0 9 21 -8 22 -24 20 -24 -2z"/>
<path d="M1605 403 c17 -11 36 -18 43 -15 16 6 8 15 -16 18 -9 1 -26 5 -37 9
-11 4 -6 -2 10 -12z"/>
<path d="M1128 383 c7 -3 16 -2 19 1 4 3 -2 6 -13 5 -11 0 -14 -3 -6 -6z"/>
<path d="M1280 376 c0 -2 8 -10 18 -17 15 -13 16 -12 3 4 -13 16 -21 21 -21
13z"/>
</g>
</svg>
